<?xml version="1.0" standalone="no"?>
<!DOCTYPE svg PUBLIC "-//W3C//DTD SVG 20010904//EN"
 "http://www.w3.org/TR/2001/REC-SVG-20010904/DTD/svg10.dtd">
<svg version="1.0" xmlns="http://www.w3.org/2000/svg"
 width="1366.000000pt" height="768.000000pt" viewBox="0 0 1366.000000 768.000000"
 preserveAspectRatio="xMidYMid meet">

<g transform="translate(0.000000,768.000000) scale(0.100000,-0.100000)"
fill="#000000" stroke="none">
<path d="M6290 7504 c-154 -18 -224 -29 -350 -54 -937 -188 -1736 -789 -2193
-1650 -176 -331 -309 -773 -342 -1133 l-7 -78 -72 -36 c-176 -88 -374 -243
-504 -393 -573 -664 -573 -1616 0 -2280 178 -206 436 -383 700 -479 163 -60
310 -89 531 -105 l67 -5 0 1757 0 1757 34 135 c46 182 92 304 186 495 295 597
799 1038 1436 1258 424 147 932 171 1382 66 312 -73 651 -233 932 -442 122
-91 387 -355 478 -477 266 -357 429 -756 488 -1190 11 -86 14 -372 14 -1602
l0 -1496 -97 -102 c-143 -151 -253 -230 -453 -330 -270 -135 -622 -220 -981
-237 l-126 -6 -7 63 c-7 56 -12 68 -46 102 l-38 38 -541 0 -541 0 -38 -34 -37
-34 -3 -269 c-2 -255 -1 -270 18 -301 38 -62 36 -62 600 -62 558 0 557 0 599
58 13 19 24 53 27 90 l7 59 136 6 c490 21 968 162 1311 384 111 72 164 116
280 230 l96 93 99 15 c441 66 852 311 1116 665 649 870 361 2096 -607 2584
l-91 45 -17 128 c-92 696 -389 1310 -878 1818 -405 422 -977 745 -1546 875
-266 61 -369 72 -692 75 -162 2 -311 1 -330 -1z"/>
</g>
</svg>
